<svg width="299" height="236" viewBox="0 0 299 236" fill="none" xmlns="http://www.w3.org/2000/svg">
<path d="M98.017 214.152V220.718L104.282 221.862L107.601 212.763L98.017 214.152Z" fill="#F9B499"/>
<path d="M128.903 215.824L129.379 222.37L135.71 223.058L137.395 213.132L128.903 215.824Z" fill="#F9B499"/>
<path d="M34.0803 9.88041L48.879 60.3953C48.9105 60.5097 48.9758 60.6118 49.0664 60.6883C49.1571 60.7648 49.2687 60.812 49.3867 60.8238L76.2903 63.1842C76.3847 63.1921 76.4796 63.1773 76.5672 63.1411C76.6547 63.1048 76.7323 63.0481 76.7934 62.9757C76.8546 62.9034 76.8976 62.8174 76.9188 62.725C76.94 62.6326 76.9389 62.5365 76.9154 62.4447L63.5776 11.5081C63.5474 11.3868 63.4798 11.278 63.3843 11.1974C63.2888 11.1167 63.1703 11.0683 63.0457 11.0589L34.6846 9.12356C34.5898 9.11746 34.4949 9.13435 34.408 9.17279C34.321 9.21123 34.2447 9.2701 34.1854 9.34439C34.126 9.41868 34.0855 9.5062 34.0672 9.59952C34.0489 9.69283 34.0534 9.78919 34.0803 9.88041Z" fill="#CCCCCC"/>
<path d="M230.142 216.091L146.734 215.994C140.486 205.388 142.465 183.743 142.465 183.743C145.311 154.935 176.11 138.858 176.11 138.858C179.961 136.342 180.797 131.988 180.797 131.988V123.272C180.793 122.063 180.526 120.869 180.013 119.775C179.176 117.996 177.804 116.524 176.089 115.565C123.073 85.3884 147.058 38.4607 147.058 38.4607L230.536 46.3886C230.536 46.3886 235.34 57.0638 235.084 71.7721C235.01 76.7163 234.342 81.6336 233.095 86.4183C233.095 86.4183 232.653 89.4111 230.176 94.0938C230.131 94.1837 230.08 94.2735 230.031 94.3668C226.346 101.21 218.382 111.522 201.366 121.392L201.335 121.413C200.815 121.764 200.33 122.165 199.888 122.612C199.867 122.64 199.84 122.664 199.816 122.691C199.174 123.343 198.614 124.071 198.148 124.858C197.025 126.781 196.514 129 196.683 131.221C196.683 131.221 196.942 140.551 201.028 142.546C201.701 142.891 202.371 143.202 203.007 143.582C207.635 146.43 222.92 156.442 228.861 167.829C228.864 167.857 242.461 190.289 230.142 216.091Z" fill="#CCCCCC"/>
<path d="M148.871 39.5286V39.4595C148.87 39.2704 148.905 39.0829 148.976 38.9077C149.047 38.7325 149.152 38.5732 149.285 38.4388C149.418 38.3045 149.577 38.1979 149.751 38.1251C149.925 38.0524 150.112 38.0149 150.301 38.0149H228.629C229.008 38.0149 229.372 38.1656 229.64 38.434C229.908 38.7023 230.059 39.0662 230.059 39.4457V39.5148H233.81C234.352 39.5148 234.872 39.7303 235.255 40.114C235.639 40.4977 235.854 41.0181 235.854 41.5607V44.671C235.854 44.816 235.826 44.9597 235.77 45.0937C235.714 45.2276 235.633 45.3493 235.53 45.4517C235.428 45.5541 235.306 45.6353 235.172 45.6905C235.038 45.7457 234.894 45.7739 234.749 45.7734H234.352" fill="#BCBEC0"/>
<path opacity="0.2" d="M148.871 39.5286V39.4595C148.87 39.2704 148.905 39.0829 148.976 38.9077C149.047 38.7325 149.152 38.5732 149.285 38.4388C149.418 38.3045 149.577 38.1979 149.751 38.1251C149.925 38.0524 150.112 38.0149 150.301 38.0149H228.629C229.008 38.0149 229.372 38.1656 229.64 38.434C229.908 38.7023 230.059 39.0662 230.059 39.4457V39.5148H233.81C234.352 39.5148 234.872 39.7303 235.255 40.114C235.639 40.4977 235.854 41.0181 235.854 41.5607V44.671C235.854 44.816 235.826 44.9597 235.77 45.0937C235.714 45.2276 235.633 45.3493 235.53 45.4517C235.428 45.5541 235.306 45.6353 235.172 45.6905C235.038 45.7457 234.894 45.7739 234.749 45.7734H234.352" fill="black"/>
<path d="M143.08 44.6399V41.3464C143.08 40.8643 143.271 40.4019 143.612 40.061C143.952 39.7201 144.415 39.5286 144.896 39.5286H228.001C228.275 39.5286 228.539 39.6378 228.733 39.8323C228.928 40.0267 229.037 40.2904 229.037 40.5654V41.1252H232.929C233.411 41.1252 233.873 41.3167 234.213 41.6576C234.554 41.9985 234.746 42.4609 234.746 42.943V44.6468C234.746 44.8856 234.699 45.1222 234.608 45.343C234.517 45.5637 234.383 45.7643 234.214 45.9332C234.046 46.1021 233.845 46.236 233.625 46.3271C233.404 46.4183 233.168 46.465 232.929 46.4646H144.896C144.657 46.4646 144.42 46.4173 144.2 46.3256C143.979 46.2338 143.778 46.0993 143.609 45.9297C143.441 45.7602 143.307 45.559 143.216 45.3376C143.125 45.1163 143.079 44.8792 143.08 44.6399Z" fill="#BCBEC0"/>
<path d="M117.83 108.118L119.633 144.965L126.022 215.465C126.022 215.465 133.558 217.103 138.148 215.465C138.148 215.465 139.457 213.333 138.148 209.725C138.148 209.725 136.919 205.578 138.148 202.022C139.812 197.556 139.679 192.619 137.778 188.25C137.778 188.25 135.444 181.856 137.533 176.323C137.533 176.323 141.315 165.009 139.302 157.755C139.302 157.755 139.008 151.362 140.483 148.77C140.483 148.77 157.06 123.687 157.06 116.308C157.06 116.308 158.659 105.816 156.753 104.793L117.83 108.118Z" fill="#2F2E41"/>
<path d="M96.4767 215.71L107.552 216.187C107.552 216.187 109.393 216.035 110.253 212.223C110.253 212.223 112.712 207.672 114.432 206.442C114.432 206.442 122.455 198.773 123.912 192.155L119.633 144.965L95.7411 214.632C95.6994 214.752 95.6864 214.88 95.7031 215.006C95.7199 215.132 95.7658 215.252 95.8374 215.357C95.9089 215.462 96.004 215.548 96.115 215.61C96.226 215.671 96.3499 215.706 96.4767 215.71Z" fill="#2F2E41"/>
<path opacity="0.2" d="M96.4767 215.71L107.552 216.187C107.552 216.187 109.393 216.035 110.253 212.223C110.253 212.223 112.712 207.672 114.432 206.442C114.432 206.442 122.455 198.773 123.912 192.155L119.633 144.965L95.7411 214.632C95.6994 214.752 95.6864 214.88 95.7031 215.006C95.7199 215.132 95.7658 215.252 95.8374 215.357C95.9089 215.462 96.004 215.548 96.115 215.61C96.226 215.671 96.3499 215.706 96.4767 215.71Z" fill="black"/>
<path opacity="0.2" d="M141.598 63.5886C141.598 63.5886 140.69 94.4048 175.143 115.503C175.426 115.676 175.716 115.849 176.006 116.008C177.108 116.64 180.987 119.097 180.731 122.342C180.731 122.342 182.527 117.791 175.24 113.741C175.24 113.741 159.353 100.007 153.268 91.1494C153.278 91.1563 146.247 84.2307 141.598 63.5886Z" fill="black"/>
<path opacity="0.2" d="M235.084 71.7721C235.01 76.7163 234.342 81.6336 233.095 86.4182C233.095 86.4182 232.653 89.4111 230.176 94.0938C230.131 94.1837 230.08 94.2735 230.031 94.3668C225.386 102.706 216.849 112.275 201.366 121.392L201.335 121.413C200.802 121.747 200.315 122.15 199.888 122.612C199.867 122.64 199.84 122.664 199.816 122.691C199.2 123.366 198.642 124.091 198.148 124.858C197.633 125.65 197.326 126.241 197.326 126.241C197.326 126.241 197.982 122.073 200.969 120.044C200.969 120.044 215.664 110.675 222.547 102.073C222.92 101.61 223.29 101.147 223.673 100.691C225.814 98.1856 234.48 86.7466 234.88 70.6559C234.884 70.687 234.98 71.0671 235.084 71.7721Z" fill="black"/>
<path d="M156.352 92.3347C156.352 92.3347 166.402 109.614 176.521 115.856C178.08 116.796 179.403 118.082 180.389 119.614C181.374 121.145 181.996 122.883 182.206 124.692C182.206 124.837 182.237 124.983 182.247 125.135C182.247 125.135 181.657 135.399 189.272 138.779C189.479 138.977 189.638 139.22 189.735 139.49C189.832 139.76 189.865 140.049 189.831 140.334L189.258 182.361C189.258 182.361 181.097 201.106 148.851 199.333C148.851 199.333 149.248 210.879 153.088 214.152H225.96C225.96 214.152 230.373 207.375 229.759 201.928C229.759 201.928 211.071 195.362 204.399 190.935C204.399 190.935 191.734 182.202 190.215 182.122L190.373 139.853C190.373 139.853 190.532 137.372 191.814 136.491C191.814 136.491 193.012 134.97 192.85 133.688C192.85 133.688 193.572 130.277 194.611 129.303C194.611 129.303 194.849 130.965 194.532 131.687C194.532 131.687 195.809 130.325 195.329 127.844C195.329 127.844 195.809 121.679 198.61 119.277C198.61 119.277 216.131 106.068 221.173 95.5004C221.173 95.5004 218.845 93.4787 212.85 94.7435C211.584 95.0168 210.345 95.3971 209.144 95.8805C205.49 97.3285 191.579 102.101 182.517 94.8265C182.389 94.7228 182.264 94.6191 182.144 94.512C181.394 93.8553 173.972 88.0598 156.352 92.3347Z" fill="white"/>
<path opacity="0.45" d="M157.878 94.8645C157.878 94.8645 171.03 90.5584 179.512 96.5371C179.512 96.5371 189.182 104.171 201.705 98.113C201.705 98.113 190.708 100.778 183.162 95.3483C183.162 95.3483 179.909 92.1689 173.934 91.2842C173.934 91.2842 166.274 89.6564 156.352 92.3831L157.878 94.8645Z" fill="black"/>
<path opacity="0.45" d="M210.052 95.5211C210.052 95.5211 217.695 95.1755 218.51 95.9323C218.51 95.9323 212.249 107.921 201.677 116.861C201.677 116.861 217.823 103.943 221.194 95.5004C221.194 95.5004 217.609 92.7149 210.052 95.5211Z" fill="black"/>
<path opacity="0.2" d="M142.202 188.882C142.202 188.882 139.015 162.804 173.054 140.655C173.054 140.655 144.402 159.03 142.202 188.882Z" fill="black"/>
<path opacity="0.45" d="M149.048 216.056C149.048 216.056 137.696 198.085 150.484 174.24C150.484 174.24 141.159 197.508 154.653 216.056H149.048Z" fill="black"/>
<path opacity="0.2" d="M200.962 142.345C200.962 142.345 234.462 161.353 235.236 193.219C235.236 193.219 235.457 179.43 228.791 167.559C228.791 167.559 224.139 156.466 200.962 142.345Z" fill="black"/>
<path d="M150.926 31.383L152.156 38.2361L142.078 43.0329L141.173 37.7453L150.039 29.8728L150.926 31.383Z" fill="#F9B499"/>
<path d="M154.68 42.6458C154.68 42.6458 167.145 44.1388 166.982 60.2052C166.982 60.2052 163.093 105.132 156.763 104.786C156.763 104.786 125.535 107.326 118.124 109.089C112.097 110.523 115.047 95.611 115.047 95.611C115.047 95.611 109.31 92.9879 107.511 91.1839C107.511 91.1839 110.965 83.9715 112.588 83.6432L116.521 85.7755C116.521 85.7755 115.872 48.5865 139.788 43.8208L154.68 42.6458Z" fill="#0071F2"/>
<g opacity="0.05">
<path d="M129.093 97.9057C123.536 97.9057 119.688 96.6097 119.637 96.5924L119.916 95.7768C119.992 95.8045 127.728 98.3999 137.074 96.0879C149.434 93.0328 159.025 82.7861 164.813 66.457L165.621 66.7438C162.341 76.0091 157.885 83.3321 152.384 88.5505C148.157 92.6244 142.934 95.5155 137.24 96.9346C134.573 97.5837 131.837 97.9098 129.093 97.9057Z" fill="black"/>
</g>
<g opacity="0.05">
<path d="M122.811 88.2706C122.223 88.2721 121.636 88.241 121.053 88.1773L121.163 87.3202C121.211 87.3202 126.154 87.925 128.896 85.772L129.428 86.4632C127.469 87.9872 124.631 88.2706 122.811 88.2706Z" fill="black"/>
</g>
<g opacity="0.05">
<path d="M146.226 70.5729L145.466 70.1548C145.767 69.5915 152.847 56.3519 159.205 55.1804L159.36 56.0271C153.409 57.1364 146.299 70.4382 146.226 70.5729Z" fill="black"/>
</g>
<g opacity="0.05">
<path d="M159.678 53.404C158.749 48.5969 155.979 46.8897 155.948 46.8758L156.386 46.1328C156.514 46.2088 159.515 48.0266 160.531 53.2381L159.678 53.404Z" fill="black"/>
</g>
<g opacity="0.05">
<path d="M140.141 80.1158L139.438 80.6121L141.519 83.5624L142.222 83.0662L140.141 80.1158Z" fill="black"/>
</g>
<g opacity="0.05">
<path d="M140.217 85.4541H139.357C139.357 83.2976 138.904 82.2262 138.901 82.2159L139.685 81.8703C139.709 81.9048 140.217 83.0937 140.217 85.4541Z" fill="black"/>
</g>
<path d="M83.2632 51.524L86.0468 79.0606H86.5407C86.5407 79.0606 86.1297 81.8254 89.162 82.0396C91.8903 82.2366 125.836 84.3827 132.567 84.8043C133.31 84.8498 134.042 84.61 134.615 84.1339L137.323 81.8841C137.36 81.8532 137.388 81.8119 137.402 81.7654C137.416 81.7189 137.417 81.6693 137.403 81.6226C137.389 81.5759 137.363 81.5342 137.325 81.5027C137.288 81.4711 137.243 81.4512 137.195 81.4452L125.135 79.9592L123.477 53.3211C123.457 52.9812 123.312 52.6607 123.071 52.4209C122.829 52.1811 122.508 52.039 122.168 52.0217L84.7137 49.9965C84.5137 49.9854 84.3136 50.0178 84.1274 50.0918C83.9412 50.1657 83.7733 50.2792 83.6353 50.4245C83.4973 50.5698 83.3926 50.7434 83.3283 50.9333C83.2641 51.1231 83.2418 51.3247 83.2632 51.524Z" fill="#2F2E41"/>
<path opacity="0.45" d="M103.332 68.2402C104.621 68.2402 105.667 67.1943 105.667 65.904C105.667 64.6138 104.621 63.5678 103.332 63.5678C102.043 63.5678 100.997 64.6138 100.997 65.904C100.997 67.1943 102.043 68.2402 103.332 68.2402Z" fill="black"/>
<path d="M106.886 88.084C105.432 87.8697 100.966 86.5081 97.164 77.9928C97.0756 77.8057 97.0284 77.6018 97.0258 77.3949C97.0258 77.0908 97.1398 76.7867 97.7165 77.1668L100.77 81.6837C100.77 81.6837 97.865 76.9733 97.0845 74.4781C97.0483 74.3594 97.053 74.2319 97.098 74.1162C97.143 74.0005 97.2255 73.9033 97.3324 73.8403C97.4392 73.7772 97.5642 73.752 97.6871 73.7687C97.8101 73.7853 97.9238 73.8429 98.0101 73.9321C98.9702 74.9378 100.524 76.9422 102.154 80.5916C102.154 80.5916 97.5439 71.2607 99.1636 71.4784C99.1636 71.4784 101.737 73.4413 104.631 79.7276C104.631 79.7276 100.559 71.9069 102.148 71.4335C102.278 71.4 102.417 71.417 102.536 71.481C102.655 71.545 102.746 71.6514 102.79 71.7791C103.28 73.1096 105.356 78.404 108.471 81.4556C108.471 81.4556 108.848 78.2381 108.644 76.6692C108.628 76.5528 108.647 76.4342 108.7 76.3293C108.753 76.2245 108.837 76.1383 108.94 76.0823C109.044 76.0263 109.161 76.0032 109.278 76.016C109.395 76.0289 109.505 76.0771 109.594 76.1542C110.022 76.5655 110.422 77.5366 110.471 79.7276C110.471 79.7276 110.336 84.2376 110.892 85.2882L108.917 88.4711L108.329 88.3536C107.853 88.2361 107.369 88.1531 106.886 88.084Z" fill="#F9B499"/>
<path d="M19.1572 37.9942L48.5854 40.4133L56.4458 69.2977C56.4667 69.3756 56.4685 69.4574 56.451 69.5362C56.4336 69.6149 56.3974 69.6883 56.3455 69.7501C56.2936 69.8118 56.2276 69.8601 56.1531 69.8909C56.0786 69.9216 55.9977 69.9339 55.9174 69.9267L26.838 67.3486C26.7369 67.3389 26.6412 67.2987 26.5634 67.2332C26.4857 67.1678 26.4297 67.0803 26.4029 66.9823L18.6495 38.6232C18.6285 38.547 18.626 38.4669 18.6421 38.3896C18.6582 38.3122 18.6925 38.2398 18.7421 38.1783C18.7917 38.1169 18.8552 38.0681 18.9274 38.0361C18.9996 38.0041 19.0784 37.9897 19.1572 37.9942Z" fill="#BCBEC0"/>
<path d="M27.3492 23.2824C23.589 27.3084 20.4466 31.8703 18.0244 36.8192L47.7911 38.986L27.3492 23.2824Z" fill="#BCBEC0"/>
<path d="M80.4692 34.0752L82.9765 37.4239L91.3342 23.3619C91.4424 23.1792 91.5887 23.0221 91.7632 22.9013C91.9377 22.7806 92.1363 22.699 92.3453 22.6622C92.5543 22.6255 92.7687 22.6344 92.9739 22.6883C93.1791 22.7423 93.3703 22.84 93.5342 22.9748C93.8093 23.1964 93.9957 23.5097 94.0591 23.8574C94.1225 24.2051 94.0588 24.5641 93.8795 24.8687L84.2681 41.0285C84.1726 41.1896 84.0394 41.3252 83.88 41.4235C83.7205 41.5217 83.5396 41.5798 83.3528 41.5928C83.166 41.6057 82.9789 41.573 82.8074 41.4976C82.636 41.4222 82.4854 41.3063 82.3687 41.1598L78.138 35.9033C77.9399 35.6573 77.8251 35.3547 77.8102 35.0391C77.7953 34.7235 77.8811 34.4114 78.0551 34.1477C78.1872 33.9522 78.3638 33.7909 78.5705 33.6771C78.7771 33.5633 79.0078 33.5002 79.2436 33.4931C79.4793 33.486 79.7134 33.5351 79.9265 33.6363C80.1396 33.7375 80.3256 33.8879 80.4692 34.0752Z" fill="#BCBEC0"/>
<path d="M105.287 220.659L97.5611 218.627L96.4249 226.379C96.4249 226.379 90.7195 224.913 89.2344 227.474L103.346 231.2L105.287 220.659Z" fill="#2F2E41"/>
<path d="M88.8162 229.075L102.929 232.785L103.349 231.184L89.2365 227.474L88.8162 229.075Z" fill="#2F2E41"/>
<path d="M136.622 219.819L128.64 219.474L129.189 227.291C129.189 227.291 123.318 227.08 122.4 229.9L136.977 230.509L136.622 219.819Z" fill="#2F2E41"/>
<path d="M122.337 231.57L136.916 232.168L136.984 230.514L122.405 229.916L122.337 231.57Z" fill="#2F2E41"/>
<path d="M146.665 46.5026L147.148 44.9405L143.95 41.5952L152.156 37.7937C152.156 37.7937 152.722 37.5449 153.465 39.0102L155.399 42.1205C155.399 42.1205 149.825 46.2054 146.665 46.5026Z" fill="#0071F2"/>
<path opacity="0.1" d="M146.665 46.5026L147.148 44.9405L143.95 41.5952L152.156 37.7937C152.156 37.7937 152.722 37.5449 153.465 39.0102L155.399 42.1205C155.399 42.1205 149.825 46.2054 146.665 46.5026Z" fill="black"/>
<path d="M141.871 45.8356C142.585 46.2619 143.377 46.5405 144.2 46.6551C145.024 46.7696 145.862 46.7178 146.665 46.5026L147.148 44.9405L143.95 41.5952L142.168 44.5811L141.871 45.8356Z" fill="#0071F2"/>
<path opacity="0.2" d="M141.871 45.8356C142.585 46.2619 143.377 46.5405 144.2 46.6551C145.024 46.7696 145.862 46.7178 146.665 46.5026L147.148 44.9405L143.95 41.5952L142.168 44.5811L141.871 45.8356Z" fill="white"/>
<path d="M143.95 41.5952L141.653 40.5377C140.922 41.5684 140.297 42.6707 139.788 43.8277L141.861 45.8356L142.158 44.5708L143.95 41.5952Z" fill="#0071F2"/>
<path opacity="0.1" d="M143.95 41.5952L141.653 40.5377C140.922 41.5684 140.297 42.6707 139.788 43.8277L141.861 45.8356L142.158 44.5708L143.95 41.5952Z" fill="black"/>
<path d="M148.871 222.805V222.874C148.871 223.254 149.022 223.618 149.29 223.886C149.558 224.154 149.922 224.305 150.301 224.305H228.629C229.008 224.304 229.371 224.153 229.639 223.885C229.907 223.617 230.058 223.254 230.059 222.874V222.805H233.81C234.352 222.805 234.872 222.59 235.255 222.206C235.639 221.822 235.854 221.302 235.854 220.759V217.649C235.854 217.504 235.826 217.36 235.77 217.226C235.714 217.093 235.633 216.971 235.53 216.868C235.428 216.766 235.306 216.685 235.172 216.63C235.038 216.574 234.894 216.546 234.749 216.547H234.352" fill="#BCBEC0"/>
<path opacity="0.2" d="M148.871 222.805V222.874C148.871 223.254 149.022 223.618 149.29 223.886C149.558 224.154 149.922 224.305 150.301 224.305H228.629C229.008 224.304 229.371 224.153 229.639 223.885C229.907 223.617 230.058 223.254 230.059 222.874V222.805H233.81C234.352 222.805 234.872 222.59 235.255 222.206C235.639 221.822 235.854 221.302 235.854 220.759V217.649C235.854 217.504 235.826 217.36 235.77 217.226C235.714 217.093 235.633 216.971 235.53 216.868C235.428 216.766 235.306 216.685 235.172 216.63C235.038 216.574 234.894 216.546 234.749 216.547H234.352" fill="black"/>
<path d="M143.08 217.691V220.988C143.081 221.469 143.272 221.931 143.613 222.272C143.953 222.613 144.415 222.804 144.896 222.805H228.001C228.275 222.805 228.539 222.696 228.733 222.502C228.928 222.307 229.037 222.044 229.037 221.769V221.202H232.929C233.411 221.202 233.873 221.01 234.213 220.669C234.554 220.328 234.746 219.866 234.746 219.384V217.677C234.746 217.195 234.554 216.732 234.213 216.391C233.873 216.051 233.411 215.859 232.929 215.859H144.896C144.657 215.859 144.42 215.907 144.198 216C143.977 216.092 143.777 216.227 143.608 216.397C143.439 216.567 143.306 216.769 143.215 216.991C143.124 217.213 143.078 217.451 143.08 217.691Z" fill="#BCBEC0"/>
<path d="M141.577 40.0884L141.298 38.4469C141.298 38.4469 143.505 39.2107 147.763 35.582C147.763 35.5958 146.526 39.3489 141.577 40.0884Z" fill="#F7A48B"/>
<path d="M141.173 39.0137C146.56 39.0137 150.926 33.1898 150.926 26.0057C150.926 18.8215 146.56 12.9977 141.173 12.9977C135.787 12.9977 131.42 18.8215 131.42 26.0057C131.42 33.1898 135.787 39.0137 141.173 39.0137Z" fill="#F9B499"/>
<path d="M131.424 20.4105C131.424 20.4105 129.124 15.8591 131.424 12.7868C131.424 12.7868 140.749 3.21743 148.081 8.31489C149.078 8.99151 150.158 9.53956 151.292 9.94607C153.254 10.6753 156.148 12.4551 156.687 16.6678C156.904 18.51 156.631 20.3768 155.896 22.0797C154.587 25.19 151.717 31.6146 150.16 31.8703C150.16 31.8703 149.683 29.5514 150.581 26.2165C150.77 25.5677 150.772 24.8789 150.588 24.2287C150.404 23.5786 150.042 22.9932 149.541 22.5394C149.385 22.4114 149.219 22.2959 149.044 22.1938C148.543 21.9081 148.11 21.5164 147.775 21.0461C147.44 20.5758 147.212 20.0381 147.107 19.4705C146.884 18.0354 146.768 16.5857 146.761 15.1334C146.524 16.088 146.032 16.96 145.337 17.6559C144.642 18.3518 143.771 18.8453 142.817 19.0835C142.029 19.2931 141.204 19.3297 140.4 19.1906C139.486 19.0242 138.545 19.0811 137.658 19.3565C137.11 19.6772 136.486 19.8462 135.851 19.8462C135.217 19.8462 134.593 19.6772 134.045 19.3565C134.045 19.3565 132.933 18.9349 131.424 20.4105Z" fill="#2F2E41"/>
<path d="M150.512 26.2683C151.42 26.2683 152.156 25.1202 152.156 23.704C152.156 22.2878 151.42 21.1397 150.512 21.1397C149.604 21.1397 148.868 22.2878 148.868 23.704C148.868 25.1202 149.604 26.2683 150.512 26.2683Z" fill="#F9B499"/>
</svg>
